HIERARCHY
ROOT Hips
{
  OFFSET 267.745 86.9975 -272.335
  CHANNELS 6 Xposition Yposition Zposition Zrotation Xrotation Yrotation
  JOINT LeftUpLeg
  {
    OFFSET 8.64259 1.95398 -2.38835
    CHANNELS 3 Zrotation Xrotation Yrotation
    JOINT LeftLeg
    {
      OFFSET 43.7702 0 0
      CHANNELS 3 Zrotation Xrotation Yrotation
      JOINT LeftFoot
      {
        OFFSET 40.6238 0 0
        CHANNELS 3 Zrotation Xrotation Yrotation
        JOINT LeftToeBase
        {
          OFFSET 12.7242 0 0
          CHANNELS 3 Zrotation Xrotation Yrotation
          End Site
          {
            OFFSET 0 0 0
          }
        }
      }
    }
  }
  JOINT RightUpLeg
  {
    OFFSET -8.2249 1.95398 -2.59336
    CHANNELS 3 Zrotation Xrotation Yrotation
    JOINT RightLeg
    {
      OFFSET 43.5653 0 0
      CHANNELS 3 Zrotation Xrotation Yrotation
      JOINT RightFoot
      {
        OFFSET 40.6238 0 0
        CHANNELS 3 Zrotation Xrotation Yrotation
        JOINT RightToeBase
        {
          OFFSET 12.7242 0 0
          CHANNELS 3 Zrotation Xrotation Yrotation
          End Site
          {
            OFFSET 0 0 0
          }
        }
      }
    }
  }
  JOINT Spine
  {
    OFFSET 0.165834 0.87714 6.61349
    CHANNELS 3 Zrotation Xrotation Yrotation
    JOINT Spine1
    {
      OFFSET 7.38963 1.71661e-005 0
      CHANNELS 3 Zrotation Xrotation Yrotation
      JOINT Spine2
      {
        OFFSET 11.9445 1.14441e-005 0
        CHANNELS 3 Zrotation Xrotation Yrotation
        JOINT Spine3
        {
          OFFSET 14.7254 4.19617e-005 0
          CHANNELS 3 Zrotation Xrotation Yrotation
          JOINT Spine4
          {
            OFFSET 10.9679 0 0
            CHANNELS 3 Zrotation Xrotation Yrotation
            JOINT RightShoulder
            {
              OFFSET 2.46616 -1.6653 3.69651
              CHANNELS 3 Zrotation Xrotation Yrotation
              JOINT RightArm
              {
                OFFSET 13.0012 0 0
                CHANNELS 3 Zrotation Xrotation Yrotation
                JOINT RightForeArm
                {
                  OFFSET 28.7848 1.52588e-005 0
                  CHANNELS 3 Zrotation Xrotation Yrotation
                  JOINT RightHand
                  {
                    OFFSET 26.5688 1.52588e-005 0
                    CHANNELS 3 Zrotation Xrotation Yrotation
                    End Site
                    {
                      OFFSET 0 0 0
                    }
                  }
                }
              }
            }
            JOINT LeftShoulder
            {
              OFFSET 2.38034 -1.29275 -3.7523
              CHANNELS 3 Zrotation Xrotation Yrotation
              JOINT LeftArm
              {
                OFFSET 16.3182 6.10352e-005 0
                CHANNELS 3 Zrotation Xrotation Yrotation
                JOINT LeftForeArm
                {
                  OFFSET 27.0901 0 0
                  CHANNELS 3 Zrotation Xrotation Yrotation
                  JOINT LeftHand
                  {
                    OFFSET 24.5451 1.52588e-005 0
                    CHANNELS 3 Zrotation Xrotation Yrotation
                    End Site
                    {
                      OFFSET 0 0 0
                    }
                  }
                }
              }
            }
            JOINT Neck
            {
              OFFSET 5.0226 -0.0266342 0
              CHANNELS 3 Zrotation Xrotation Yrotation
              JOINT Head
              {
                OFFSET 6.69364 2.86102e-005 0
                CHANNELS 3 Zrotation Xrotation Yrotation
                End Site
                {
                  OFFSET 0 0 0
                }
              }
            }
          }
        }
      }
    }
  }
}
MOTION
Frames:	9
Frame Time:	0.0416667
-180.327 95.0921 180.835 97.7542 53.0969 85.4894 -177.189 1.56082 89.0283 -10.4987 21.0263 3.0836 56.3784 1.47836 11.4439 37.351 -1.05449 2.27518 175.473 4.75074 89.6755 -20.9012 7.75428 -0.329218 63.9793 7.45135 20.9422 22.1383 2.14829 -3.15975 -0.620613 6.98511 -90.3696 12.9006 -1.40942 -0.568957 1.23031 -1.43312 -0.506353 -21.3084 -1.17327 -0.966266 -1.29577 -1.17328 -0.966278 101.306 -56.6312 -83.4096 28.3722 -16.8506 5.33513 16.3275 8.76455 -81.3118 -10.7916 -0.469684 -0.124988 -84.5892 -53.9019 87.0797 -24.9955 22.2972 -7.2124 -15.4278 -12.8337 -48.8512 11.5433 -2.27167 -22.1024 3.76488 -1.07987 -3.44253 -29.9906 -1.66332 5.13173 
-180.298 95.1152 180.773 97.4304 52.9562 85.8768 -177.122 1.77745 89.1347 -10.6683 20.9518 3.1011 55.9183 1.05709 11.5822 38.5334 -1.1193 0.91435 175.541 4.82104 89.7987 -20.7495 7.77754 -0.334525 63.7911 7.52861 21.0606 22.336 2.11328 -3.29545 -0.596702 6.9662 -90.387 12.9382 -1.37029 -0.60769 1.26782 -1.39573 -0.546786 -21.2704 -1.12432 -0.991452 -1.25775 -1.12433 -0.991457 101.394 -56.5962 -83.2833 28.5344 -17.591 5.39547 13.036 8.64618 -80.7975 -10.2735 -0.528302 0.936825 -84.5597 -53.9104 87.1234 -25.0092 22.1905 -7.38465 -15.541 -13.0101 -48.7668 12.0722 -2.35657 -22.1102 3.47408 -0.978658 -3.57826 -29.4073 -1.56358 5.31981 
-180.221 95.1246 180.613 96.6615 52.5555 86.8067 -176.905 2.27814 89.4296 -11.0775 20.8459 3.06528 56.284 1.219 11.7405 38.4432 -1.11472 1.03704 175.645 4.89214 90.0663 -20.1729 7.29292 -0.254431 63.719 7.30255 20.7789 22.2873 2.11899 -3.2425 -0.540906 6.93193 -90.4172 13.0063 -1.2742 -0.67897 1.33584 -1.30283 -0.62224 -21.2013 -1.01123 -1.03054 -1.18868 -1.01123 -1.03054 101.419 -56.7054 -83.2459 28.1549 -16.7105 5.18926 9.41343 8.58406 -79.8835 -4.85879 -0.295572 2.0341 -84.5162 -53.7615 87.1699 -25.0532 22.2801 -7.3375 -15.5496 -13.1926 -49.3619 13.6918 -2.51986 -21.4639 3.79026 -1.02796 -3.70149 -29.7131 -1.62399 5.44277 
-180.11 95.1555 180.423 95.7567 51.9874 88.0482 -176.552 2.86449 89.9042 -11.5463 20.5725 3.03832 56.6637 1.33339 11.9157 38.3187 -1.09737 0.896158 175.808 4.96581 90.5149 -19.4599 7.07404 -0.149752 63.3588 7.27622 20.9355 22.2385 2.13296 -3.2439 -0.466235 6.87661 -90.4788 13.1163 -1.1558 -0.815047 1.44562 -1.19056 -0.763393 -21.09 -0.857431 -1.12472 -1.07737 -0.857412 -1.12472 101.338 -56.7205 -83.3625 28.1072 -16.7346 5.22634 9.15466 8.58585 -79.9096 -4.56599 -0.277362 2.14929 -84.5036 -53.8244 87.1951 -24.995 22.3387 -7.24182 -15.9659 -13.6867 -50.2273 16.5528 -2.78585 -20.4334 4.05455 -1.02164 -3.51738 -30.0587 -1.57159 5.06788 
-179.968 95.1564 180.196 94.5694 51.2353 89.5511 -176.045 3.48728 90.5288 -11.6176 20.1562 2.86429 57.0212 1.34822 11.5044 38.5941 -1.12927 1.00341 176.056 5.22811 91.0465 -18.7991 6.72585 -0.0813215 63.1545 7.11308 20.8961 22.2492 2.07943 -2.91541 -0.364834 6.80139 -90.537 13.2663 -0.982967 -0.951329 1.59539 -1.02387 -0.907166 -20.9385 -0.651621 -1.20274 -0.925851 -0.651644 -1.20276 101.391 -56.6587 -83.2871 28.3451 -17.1671 5.23211 10.574 8.75251 -80.0689 -6.04839 -0.368669 2.09623 -84.539 -53.6622 87.1258 -25.211 22.386 -7.05624 -16.6396 -14.3798 -51.5187 20.9822 -3.18883 -19.2805 3.7084 -1.03795 -3.76768 -29.5009 -1.61011 5.42301 
-179.812 95.1831 180.017 93.6482 50.4638 90.876 -175.581 4.20467 91.1273 -12.2875 19.8866 2.76846 57.643 1.66509 11.9549 38.0112 -1.05764 0.681969 176.241 5.40439 91.5989 -18.1303 6.008 0.0864199 62.4704 7.01456 20.5828 22.7427 1.94235 -2.92146 -0.252494 6.74556 -90.6065 13.3777 -0.794064 -1.11335 1.70654 -0.842292 -1.07733 -20.8255 -0.4228 -1.3005 -0.812856 -0.422787 -1.3005 101.411 -56.7724 -83.2568 28.223 -16.9277 5.26369 10.3117 8.70711 -79.9759 -5.57512 -0.325282 1.78561 -84.6012 -53.8109 87.0522 -25.0468 22.3349 -7.13799 -17.0303 -14.828 -52.582 25.899 -3.60601 -18.2624 3.64066 -1.03025 -3.47601 -29.3505 -1.53774 4.93743 
-179.666 95.1683 179.908 92.6795 49.6029 92.1846 -175.026 4.91185 91.8013 -12.6316 19.8596 2.53127 57.8409 1.63699 12.1268 38.5064 -1.1124 0.740037 176.535 5.86777 92.1726 -17.9151 6.08429 0.0911199 62.3718 6.93635 21.2184 22.4847 2.03395 -3.05039 -0.145774 6.68299 -90.669 13.5028 -0.61328 -1.26102 1.83141 -0.668182 -1.23282 -20.699 -0.206004 -1.38702 -0.686397 -0.205989 -1.38701 101.365 -56.7429 -83.3227 28.2543 -16.8207 5.32517 10.4479 8.68452 -80.1186 -5.64728 -0.336657 1.9422 -84.502 -54.0513 87.2225 -24.892 22.1097 -7.09505 -17.2015 -15.0489 -53.7892 31.6193 -4.04521 -17.2737 3.6886 -0.937393 -3.13293 -29.4346 -1.41329 4.5222 
-179.553 95.175 179.925 92.1087 48.7451 93.093 -174.461 5.51653 92.4097 -13.1486 19.5313 2.28941 58.434 1.91987 12.1427 37.9335 -1.05164 0.709317 176.989 6.04719 92.8124 -17.3747 5.58076 -0.0408494 61.9582 6.75332 20.8763 22.9286 1.90953 -3.05141 -0.03128 6.65766 -90.6893 13.5543 -0.396098 -1.32947 1.88278 -0.454229 -1.31075 -20.6469 0.0217426 -1.38703 -0.634281 0.0217169 -1.38704 101.406 -57.0548 -83.26 28.2645 -16.614 5.37205 10.3338 8.53778 -80.3041 -6.11699 -0.362734 1.88625 -84.4138 -53.5813 87.2986 -25.3429 21.8967 -7.15313 -16.9721 -15.1246 -54.642 37.686 -4.62628 -16.7627 3.60342 -1.08913 -4.36604 -29.1506 -1.64863 5.89071 
-179.481 95.1468 180.082 91.5841 47.8372 93.7032 -173.863 5.92266 92.8874 -13.0028 19.4091 1.87385 58.5668 1.94801 12.0985 38.0369 -1.0643 0.782138 177.416 6.48202 93.2486 -17.1909 5.177 -0.243206 61.8656 6.58046 20.6853 22.9611 1.87496 -2.87825 0.0902073 6.65784 -90.7042 13.5551 -0.162573 -1.38946 1.88345 -0.223556 -1.38098 -20.6459 0.262477 -1.3741 -0.633212 0.262494 -1.37409 101.489 -57.198 -83.1403 28.1379 -16.5519 5.24754 9.8304 8.53398 -80.0774 -5.33257 -0.302902 1.59397 -84.4369 -53.7105 87.2794 -25.1822 21.7342 -7.27962 -16.3095 -14.8952 -55.349 43.0705 -5.08899 -16.2719 3.99774 -1.18159 -4.06536 -29.1536 -1.65341 5.33471 
